# xmcd CD database file
# Copyright (C) 1996 Ti Kan
#
# Track frame offsets:
#	182
#	11115
#	24182
#	34392
#	51605
#	61357
#	74855
#	84622
#	101657
#	111670
#	122850
#	133887
#	150132
# Disc length: 2152 seconds
#
# Revision: 1
# Processed by: cddbd v1.5PL3 Copyright (c) Steve Scherf et al.
# Submitted via: CDCOPY 4.900
#
DISCID=c108660d
DTITLE=Frank Sinartra - My Way
DYEAR=1900
DGENRE=
TTITLE0=night and day
TTITLE1=shadow in the sand
TTITLE2=love me or leave me
TTITLE3=we'll be together again
TTITLE4=woodywoodpecker song
TTITLE5=our love affairs
TTITLE6=laroo laroo lilli bolero
TTITLE7=my way
TTITLE8=don't blame me
TTITLE9=sometime im happy
TTITLE10=my happiness
TTITLE11=this one i love
TTITLE12=on the road to mandolay
EXTD=
EXTT0=
EXTT1=
EXTT2=
EXTT3=
EXTT4=
EXTT5=
EXTT6=
EXTT7=
EXTT8=
EXTT9=
EXTT10=
EXTT11=
EXTT12=
PLAYORDER=
